<svg xmlns="http://www.w3.org/2000/svg" width="200" height="60" viewBox="0 0 200 60">
  <style>
    .logo-text { font-family: 'Arial', sans-serif; font-weight: bold; }
    .primary { fill: #2E8B57; }
    .accent { fill: #FF8C42; }
  </style>
  <g transform="translate(5,5)">
    <!-- Heart shape -->
    <path class="accent" d="M25,10 C25,10 20,0 10,0 C5,0 0,5 0,10 C0,20 10,25 25,35 C40,25 50,20 50,10 C50,5 45,0 40,0 C30,0 25,10 25,10 Z" />
    <!-- Child silhouette -->
    <path class="primary" d="M25,20 C28,20 30,17 30,14 C30,11 28,8 25,8 C22,8 20,11 20,14 C20,17 22,20 25,20 Z M18,22 C16,22 15,23 15,25 L15,32 C15,33 16,34 17,34 L33,34 C34,34 35,33 35,32 L35,25 C35,23 34,22 32,22 L30,22 C29,22 28,23 25,23 C22,23 21,22 20,22 Z" />
  </g>
  <!-- Text -->
  <text x="60" y="25" class="logo-text primary" font-size="18">SAVE THE</text>
  <text x="60" y="45" class="logo-text accent" font-size="24">KIDS</text>
</svg>